<?xml version="1.0" encoding="utf-8"?>
<!-- Generator: Adobe Illustrator 28.4.1, SVG Export Plug-In . SVG Version: 6.00 Build 0)  -->
<svg version="1.1" xmlns="http://www.w3.org/2000/svg" xmlns:xlink="http://www.w3.org/1999/xlink" x="0px" y="0px"
	 viewBox="0 0 800 800" style="enable-background:new 0 0 800 800;" xml:space="preserve">
<style type="text/css">
	.st0{fill:#CBD807;}
</style>
<g id="Layer_1">
	<path class="st0" d="M396,557.2c0,0,0-226.7,7.5-226.6c5.8,0,13.4,292.4,13.4,292.4C406.5,621.7,396,574.8,396,557.2L396,557.2z
		 M541.8,333.2c-20.1-87.9-64.1-163.4-124.9-221.7l-0.2-0.1c-7.4-11.3-14.2-24.2-19.6-37.9l-0.5-1.5c0,0.4,0,1,0,1.5
		c0,12.4-5.5,23.4-14.3,30.8l-0.1,0c-78.2,66.4-127.9,164.2-129.6,273.6v0.3c0,1.4,0,3,0,4.6c0,108.4,52.2,204.7,132.8,265l0.9,0.6
		l1.9,1.4c3.5,26,6.5,52.1,9,78.2h13.1c3.6-32.6,8.5-61.2,14.9-89.2l-1,5.2c8.7-6,16.2-12.3,23.3-19l-0.1,0.1
		c61.3-56.8,99.5-137.7,99.5-227.6c0-1.3,0-2.6,0-4v0.2c-0.1-21.5-2-42.4-5.7-62.8L541.8,333.2L541.8,333.2z"/>
</g>
<g id="Layer_2">
</g>
<g id="Layer_3">
</g>
</svg>
