<?xml version="1.0" encoding="UTF-8"?>
<svg id="Layer_1" data-name="Layer 1" xmlns="http://www.w3.org/2000/svg" version="1.1" viewBox="0 0 800 800">
  <defs>
    <style>
      .cls-1 {
        fill: #cbd807;
      }

      .cls-1, .cls-2 {
        stroke: #cbd807;
        stroke-miterlimit: 10;
      }

      .cls-2 {
        fill: none;
        stroke-width: 10px;
      }
    </style>
  </defs>
  <path class="cls-1" d="M400,166.7l4.6-16c-3-.9-6.2-.9-9.2,0l4.6,16ZM166.7,233.3l-4.6-16c-7.8,2.2-12.9,9.8-12,17.9l16.6-1.8ZM200,533.3l-16.6,1.8c.6,5.6,4.1,10.5,9.1,13.1l7.5-14.9ZM400,633.3l-7.5,14.9c4.7,2.3,10.2,2.3,14.9,0l-7.5-14.9ZM600,533.3l7.5,14.9c5.1-2.5,8.5-7.4,9.1-13.1l-16.6-1.8ZM633.3,233.3l16.6,1.8c.9-8.1-4.2-15.6-12-17.9l-4.6,16ZM400,250l15.3-6.7-15.3-34.9-15.3,34.9,15.3,6.7ZM395.4,150.6l-233.3,66.7,9.2,32.1,233.3-66.7-9.2-32.1ZM150.1,235.2l33.3,300,33.1-3.7-33.3-300-33.1,3.7ZM192.5,548.2l200,100,14.9-29.8-200-100-14.9,29.8ZM407.5,648.2l200-100-14.9-29.8-200,100,14.9,29.8ZM616.6,535.2l33.3-300-33.1-3.7-33.3,300,33.1,3.7ZM637.9,217.3l-233.3-66.7-9.2,32.1,233.3,66.7,9.2-32.1ZM298.6,523.3l116.7-266.7-30.5-13.4-116.7,266.7,30.5,13.4ZM384.7,256.7l116.7,266.7,30.5-13.4-116.7-266.7-30.5,13.4ZM316.7,450h166.7v-33.3h-166.7v33.3Z"/>
  <rect class="cls-2" width="800" height="800" rx="100" ry="100"/>
</svg>