<?xml version="1.0" encoding="UTF-8"?>
<svg id="Layer_1" data-name="Layer 1" xmlns="http://www.w3.org/2000/svg" version="1.1" viewBox="0 0 800 800">
  <defs>
    <style>
      .cls-1 {
        fill: none;
        stroke: #cbd807;
        stroke-miterlimit: 10;
        stroke-width: 10px;
      }

      .cls-2 {
        fill: #cbd807;
        stroke-width: 0px;
      }
    </style>
  </defs>
  <path class="cls-2" d="M363.7,186.3l-199.7,199.7c-3.6,3.6-5.8,8.5-5.8,14s2.2,10.4,5.8,14h0c78.8,78.5,157.3,157.8,236,236,22.5-22.6,36.4-53.7,36.4-88.1s-14.6-67-38.1-89.7h0s-72.3-72.3-72.3-72.3l66.7-66.7c-24.3-24.4-39.4-58.1-39.4-95.3s3.8-36.5,10.7-52.6l-.3.9h0ZM400.1,150c-22.6,22.5-36.5,53.7-36.5,88.1s15.1,68,39.2,90.7h0c0,0,71.1,71.2,71.1,71.2l-66.6,66.6c24.4,24.5,39.4,58.2,39.4,95.5s-3.7,36-10.4,52l.3-.9,199.3-199.3c3.6-3.6,5.8-8.5,5.8-14s-2.2-10.4-5.8-14h0l-236-236Z"/>
  <rect class="cls-1" width="800" height="800" rx="100" ry="100"/>
</svg>