<?xml version="1.0" encoding="UTF-8"?>
<svg id="Layer_1" data-name="Layer 1" xmlns="http://www.w3.org/2000/svg" version="1.1" viewBox="0 0 800 800">
  <defs>
    <style>
      .cls-1 {
        fill: none;
        stroke: #cbd807;
        stroke-miterlimit: 10;
        stroke-width: 10px;
      }

      .cls-2 {
        fill: #cbd807;
        stroke-width: 0px;
      }
    </style>
  </defs>
  <path class="cls-2" d="M368.4,516.2c10.3.5,20.8.8,31.5.8s21.4-.2,31.8-.8c-10.4,13.5-20.7,25.4-31.6,36.8h.1c-10.8-11.4-21.2-23.3-31.1-35.7l-.8-1ZM261.8,501.3c20.3,5.1,45,9.5,70.2,12.2l2.5.2c15.4,21.2,31.1,39.9,47.8,57.4l-.2-.2c-24.5,27.4-57.6,46.6-95.1,53.5h-1c0,.1-.1.1-.2.1-4.6,0-9-1.1-12.9-3.2h.1c-15.6-8.8-22.3-42.8-17.1-86.5,1.3-10.8,3.3-22.1,5.8-33.6h0ZM538.5,501c2.2,8.9,4.3,20.2,5.8,31.7l.2,1.6c5.4,43.7-1.3,77.7-16.7,86.7-3.4,1.9-7.6,3-11.9,3s-.9,0-1.3,0h0c-38.4-7-71.5-26.1-96-53.2h-.1c16.5-17.4,31.9-36,46.2-55.6l1.1-1.6c27.6-2.9,52.4-7.3,76.5-13.4l-3.7.8h0ZM283.6,431.2c4.7,9.2,9.6,18.3,15,27.5,5.4,9.1,10.9,18,16.5,26.7-16.2-2.4-31.9-5.4-46.9-9,4.2-14.7,9.5-30,15.4-45.2h0ZM516.3,430.7c6.2,15.4,11.5,30.7,15.8,45.6-15,3.7-30.8,6.8-47.1,9.1,5.6-8.8,11.2-17.8,16.5-27.1,5.3-9.1,10.2-18.4,14.9-27.6h0ZM243.1,330.6c8.2,27.7,16.9,50.8,27.1,73.1l-1.4-3.4c-8.7,18.8-17.4,41.8-24.4,65.5l-1,3.8c-13.2-4.1-23.8-8-34.2-12.5l2.2.8c-40.5-17.2-66.7-39.9-66.7-57.9s26.2-40.7,66.7-57.9c9.8-4.2,20.6-8,31.7-11.5h0ZM556.4,330.5c11.3,3.5,22.1,7.4,32.2,11.6,40.5,17.3,66.7,39.9,66.7,57.9-.1,18-26.3,40.7-66.8,57.9-9.8,4.2-20.6,8-31.7,11.5-8.2-27.8-17-50.9-27.2-73.2l1.4,3.5c8.7-18.8,17.3-41.8,24.4-65.5l1-3.9h0ZM484.8,314.7c16.3,2.4,31.9,5.4,46.9,9.1-4.2,14.8-9.5,30-15.4,45.2-4.7-9.1-9.6-18.3-15-27.5-5.3-9.2-10.9-18.1-16.5-26.8h0ZM315,314.7c-5.6,8.8-11.2,17.8-16.5,27.1-5.3,9.1-10.2,18.3-14.9,27.5-6.2-15.3-11.5-30.6-15.8-45.5,15-3.5,30.8-6.6,47.1-9h0ZM400,308.8c17.3,0,34.6.8,51.5,2.2,9.5,13.6,18.7,28.1,27.7,43.5,8.7,15,16.6,30.1,23.8,45.5-7.2,15.3-15.1,30.6-23.7,45.6-8.9,15.4-18.1,30.1-27.6,43.7-17,1.5-34.3,2.3-51.7,2.3s-34.6-.8-51.5-2.2c-9.5-13.6-18.8-28.2-27.7-43.5-8.7-15-16.6-30.1-23.8-45.5,7.1-15.4,15.1-30.7,23.7-45.7,8.9-15.4,18.1-30.1,27.6-43.7,17-1.5,34.3-2.3,51.7-2.3h0ZM399.6,247.3c10.9,11.2,21.3,23.2,31.1,35.6l.7,1c-10.3-.5-20.8-.8-31.5-.8s-21.4.2-31.8.8c10.4-13.5,20.7-25.4,31.6-36.8h-.1c0,.1,0,.2,0,.2ZM285.4,176c38.4,7,71.5,26.1,96,53.2h.1c-16.5,17.4-31.9,36.1-46.2,55.7l-1.1,1.6c-27.6,2.9-52.4,7.3-76.5,13.4l3.7-.8c-2.6-11.5-4.6-22.6-5.9-33.2-5.4-43.7,1.3-77.7,16.7-86.7,3.9-1.8,8.4-2.9,13.1-3.1h0,0ZM514,175.5h0c.2.1.5.1.8.1,4.5,0,8.7,1.1,12.4,3.1h-.1c15.6,8.9,22.3,42.8,17.1,86.6-1.3,10.8-3.3,22.1-5.8,33.7-20.3-5.2-45-9.6-70.3-12.3l-2.4-.2c-15.5-21.2-31.1-39.9-47.8-57.5l.2.2c24.5-27.3,57.6-46.6,95-53.5l1-.2h0ZM514.1,150c-45.7,6.9-85.3,29.1-114.2,61.2v.2c-29.3-32-68.8-54.1-113.4-60.7h-1c-.2-.1-.5-.1-.8-.1-9.2,0-17.8,2.4-25.3,6.6h.3c-32.2,18.4-39.4,76.2-22.8,148.7-71.2,22-117.5,57.1-117.5,94.2s46.5,72.4,118,94.3c-16.5,72.8-9.1,130.7,23.1,149.2,7.1,4.1,15.6,6.4,24.6,6.4s.8,0,1.2,0h0c45.7-6.9,85.3-29.2,114.2-61.2v-.2c29.3,32,68.8,54.1,113.4,60.8h1c.3.1.6.1,1,.1,9.1,0,17.7-2.4,25.2-6.6h-.3c32.1-18.4,39.4-76.2,22.8-148.7,70.9-21.8,117.2-57,117.2-94.1s-46.5-72.4-118-94.3c16.5-72.7,9.1-130.7-23.1-149.2-7.1-4.1-15.7-6.5-24.9-6.5h-.7,0ZM452.2,400.1c0,28.9-23.4,52.3-52.3,52.3s-52.3-23.4-52.3-52.3,23.4-52.3,52.3-52.3,27.5,5.9,37,15.3h0c9.5,9.5,15.3,22.5,15.3,37h0Z"/>
  <rect class="cls-1" width="800" height="800" rx="100" ry="100"/>
</svg>